<?xml version="1.0" encoding="UTF-8" standalone="no"?>
<!-- Created with Inkscape (http://www.inkscape.org/) -->

<svg
   xmlns:dc="http://purl.org/dc/elements/1.1/"
   xmlns:cc="http://creativecommons.org/ns#"
   xmlns:rdf="http://www.w3.org/1999/02/22-rdf-syntax-ns#"
   xmlns:svg="http://www.w3.org/2000/svg"
   xmlns="http://www.w3.org/2000/svg"
   xmlns:sodipodi="http://sodipodi.sourceforge.net/DTD/sodipodi-0.dtd"
   xmlns:inkscape="http://www.inkscape.org/namespaces/inkscape"
   width="26"
   height="26"
   viewBox="0 0 26 26"
   id="svg5557"
   version="1.1"
   inkscape:version="0.91 r"
   sodipodi:docname="No-preview.svg">
  <defs
     id="defs5559" />
  <sodipodi:namedview
     id="base"
     pagecolor="#ffffff"
     bordercolor="#666666"
     borderopacity="1.0"
     inkscape:pageopacity="0.0"
     inkscape:pageshadow="2"
     inkscape:zoom="3.959798"
     inkscape:cx="-7.9671467"
     inkscape:cy="-30.11424"
     inkscape:document-units="px"
     inkscape:current-layer="layer1"
     showgrid="false"
     inkscape:window-width="1366"
     inkscape:window-height="741"
     inkscape:window-x="0"
     inkscape:window-y="0"
     inkscape:window-maximized="1"
     units="px" />
  <metadata
     id="metadata5562">
    <rdf:RDF>
      <cc:Work
         rdf:about="">
        <dc:format>image/svg+xml</dc:format>
        <dc:type
           rdf:resource="http://purl.org/dc/dcmitype/StillImage" />
        <dc:title></dc:title>
      </cc:Work>
    </rdf:RDF>
  </metadata>
  <g
     inkscape:label="Layer 1"
     inkscape:groupmode="layer"
     id="layer1"
     transform="translate(0,-1026.3622)">
    <g
       transform="translate(-144.12055,752.48277)"
       id="g5356">
      <g
         id="g5358">
        <path
           style="fill:#b3b3b3"
           inkscape:connector-curvature="0"
           d="m 157,280.1 c 4.6,0 8.8,4.7 10.5,6.9 -1.7,2.2 -5.9,6.9 -10.5,6.9 -4.6,0 -8.8,-4.7 -10.5,-6.9 1.7,-2.1 5.9,-6.9 10.5,-6.9 m 0,-2 c -7.2,0 -13,8.9 -13,8.9 0,0 5.8,8.9 13,8.9 7.2,0 13,-8.9 13,-8.9 0,0 -5.8,-8.9 -13,-8.9 l 0,0 z"
           id="path5360" />
      </g>
      <circle
         style="fill:none;stroke:#b3b3b3;stroke-width:2;stroke-miterlimit:10"
         stroke-miterlimit="10"
         cx="157"
         cy="287"
         r="3"
         id="circle5362" />
    </g>
  </g>
</svg>
